<svg version="1.1" xmlns="http://www.w3.org/2000/svg" viewBox="0 0 300.08805480451235 392.660858549961" width="300.08805480451235" height="392.660858549961" filter="invert(93%) hue-rotate(180deg)">
  <!-- svg-source:excalidraw -->
  
  <defs>
    <style class="style-fonts">
      
    </style>
    
  </defs>
  <g stroke-linecap="round"><g stroke-opacity="0.7" fill-opacity="0.7" transform="translate(153.39348996390243 95.83333333333331) rotate(0 -32.312440363591065 141.9406512964266)"><path d="M0 0 C-23.06 43.89, -120.42 219.72, -138.33 263.33 C-156.25 306.94, -121.94 279.86, -107.5 261.67 C-93.06 243.47, -75.83 174.31, -51.67 154.17 C-27.5 134.03, 16.11 150.97, 37.5 140.83 C58.89 130.69, 71.53 111.67, 76.67 93.33 C81.81 75, 76.94 46.53, 68.33 30.83 C59.72 15.14, 36.39 4.31, 25 -0.83 C13.61 -5.97, 4.17 -0.14, 0 0 M0 0 C-23.06 43.89, -120.42 219.72, -138.33 263.33 C-156.25 306.94, -121.94 279.86, -107.5 261.67 C-93.06 243.47, -75.83 174.31, -51.67 154.17 C-27.5 134.03, 16.11 150.97, 37.5 140.83 C58.89 130.69, 71.53 111.67, 76.67 93.33 C81.81 75, 76.94 46.53, 68.33 30.83 C59.72 15.14, 36.39 4.31, 25 -0.83 C13.61 -5.97, 4.17 -0.14, 0 0" stroke="#1e1e1e" stroke-width="1" fill="none"></path></g></g><mask></mask><g stroke-linecap="round"><g stroke-opacity="0.7" fill-opacity="0.7" transform="translate(177.56015663056894 270.00000000000006) rotate(0 50.18027702613614 -75.46674760581357)"><path d="M0 0 C9.72 -10.14, 47.5 -40.14, 58.33 -60.83 C69.17 -81.53, 64.58 -107.36, 65 -124.17 C65.42 -140.97, 56.81 -155.28, 60.83 -161.67 C64.86 -168.06, 82.64 -174.44, 89.17 -162.5 C95.69 -150.56, 101.94 -112.22, 100 -90 C98.06 -67.78, 91.53 -47.08, 77.5 -29.17 C63.47 -11.25, 28.75 12.64, 15.83 17.5 C2.92 22.36, 2.64 2.92, 0 0 M0 0 C9.72 -10.14, 47.5 -40.14, 58.33 -60.83 C69.17 -81.53, 64.58 -107.36, 65 -124.17 C65.42 -140.97, 56.81 -155.28, 60.83 -161.67 C64.86 -168.06, 82.64 -174.44, 89.17 -162.5 C95.69 -150.56, 101.94 -112.22, 100 -90 C98.06 -67.78, 91.53 -47.08, 77.5 -29.17 C63.47 -11.25, 28.75 12.64, 15.83 17.5 C2.92 22.36, 2.64 2.92, 0 0" stroke="#1e1e1e" stroke-width="1" fill="none"></path></g></g><mask></mask><g stroke-opacity="0.7" fill-opacity="0.7" stroke-linecap="round" transform="translate(187.56015663056917 10) rotate(0 42.08333333333337 42.08333333333337)"><path d="M84.17 42.08 C84.17 44.08, 84.02 46.1, 83.74 48.07 C83.45 50.05, 83.02 52.02, 82.46 53.94 C81.9 55.86, 81.19 57.75, 80.36 59.57 C79.53 61.38, 78.57 63.16, 77.49 64.84 C76.41 66.51, 75.2 68.13, 73.89 69.64 C72.58 71.15, 71.15 72.58, 69.64 73.89 C68.13 75.2, 66.51 76.41, 64.84 77.49 C63.16 78.57, 61.38 79.53, 59.57 80.36 C57.75 81.19, 55.86 81.9, 53.94 82.46 C52.02 83.02, 50.05 83.45, 48.07 83.74 C46.1 84.02, 44.08 84.17, 42.08 84.17 C40.09 84.17, 38.07 84.02, 36.09 83.74 C34.12 83.45, 32.14 83.02, 30.23 82.46 C28.31 81.9, 26.42 81.19, 24.6 80.36 C22.79 79.53, 21.01 78.57, 19.33 77.49 C17.65 76.41, 16.03 75.2, 14.52 73.89 C13.02 72.58, 11.59 71.15, 10.28 69.64 C8.97 68.13, 7.76 66.51, 6.68 64.84 C5.6 63.16, 4.63 61.38, 3.8 59.57 C2.97 57.75, 2.27 55.86, 1.7 53.94 C1.14 52.02, 0.71 50.05, 0.43 48.07 C0.14 46.1, 0 44.08, 0 42.08 C0 40.09, 0.14 38.07, 0.43 36.09 C0.71 34.12, 1.14 32.14, 1.7 30.23 C2.27 28.31, 2.97 26.42, 3.8 24.6 C4.63 22.79, 5.6 21.01, 6.68 19.33 C7.76 17.65, 8.97 16.03, 10.28 14.52 C11.59 13.02, 13.02 11.59, 14.52 10.28 C16.03 8.97, 17.65 7.76, 19.33 6.68 C21.01 5.6, 22.79 4.63, 24.6 3.8 C26.42 2.97, 28.31 2.27, 30.23 1.7 C32.14 1.14, 34.12 0.71, 36.09 0.43 C38.07 0.14, 40.09 0, 42.08 0 C44.08 0, 46.1 0.14, 48.07 0.43 C50.05 0.71, 52.02 1.14, 53.94 1.7 C55.86 2.27, 57.75 2.97, 59.57 3.8 C61.38 4.63, 63.16 5.6, 64.84 6.68 C66.51 7.76, 68.13 8.97, 69.64 10.28 C71.15 11.59, 72.58 13.02, 73.89 14.52 C75.2 16.03, 76.41 17.65, 77.49 19.33 C78.57 21.01, 79.53 22.79, 80.36 24.6 C81.19 26.42, 81.9 28.31, 82.46 30.23 C83.02 32.14, 83.45 34.12, 83.74 36.09 C84.02 38.07, 84.1 41.09, 84.17 42.08 C84.24 43.08, 84.24 41.09, 84.17 42.08" stroke="#1e1e1e" stroke-width="1" fill="none"></path></g><g stroke-linecap="round"><g stroke-opacity="0.7" fill-opacity="0.7" transform="translate(259.2389992798569 35.13250447681452) rotate(7.557315319886737 14.771137177749267 -12.316426859856222)"><path d="M0 -16.55 C4.82 -18.03, 25.69 -28.11, 28.92 -25.44 C32.14 -22.76, 21.99 -4.42, 19.36 -0.5 C16.72 3.42, 13.64 -0.22, 13.1 -1.91 C12.57 -3.59, 16.16 -8.33, 16.15 -10.6 C16.14 -12.86, 15.12 -15.17, 13.03 -15.51 C10.93 -15.84, 5.74 -12.43, 3.57 -12.61 C1.4 -12.78, 0.6 -15.89, 0 -16.55 M0 -16.55 C4.82 -18.03, 25.69 -28.11, 28.92 -25.44 C32.14 -22.76, 21.99 -4.42, 19.36 -0.5 C16.72 3.42, 13.64 -0.22, 13.1 -1.91 C12.57 -3.59, 16.16 -8.33, 16.15 -10.6 C16.14 -12.86, 15.12 -15.17, 13.03 -15.51 C10.93 -15.84, 5.74 -12.43, 3.57 -12.61 C1.4 -12.78, 0.6 -15.89, 0 -16.55" stroke="#1e1e1e" stroke-width="1" fill="none"></path></g></g><mask></mask><g stroke-linecap="round"><g stroke-opacity="0.7" fill-opacity="0.7" transform="translate(210.46201014563758 383.18204767376864) rotate(11.46179010167801 19.00444433184009 -75.1573527730157)"><path d="M-0.72 -49.23 C-0.88 -57.74, -8.28 -91.46, -1.67 -100.33 C4.94 -109.21, 32.48 -103.94, 38.93 -102.5 C45.38 -101.06, 41.76 -93.33, 37.04 -91.67 C32.32 -90.01, 15.09 -94.49, 10.61 -92.54 C6.12 -90.59, 8.4 -82.22, 10.14 -79.98 C11.87 -77.74, 19.26 -80.56, 20.99 -79.11 C22.72 -77.67, 22.49 -72.4, 20.52 -71.32 C18.55 -70.23, 11.71 -76.8, 9.19 -72.61 C6.67 -68.43, 7.07 -50.09, 5.41 -46.19 C3.76 -42.3, 0.3 -48.72, -0.72 -49.23 M-0.72 -49.23 C-0.88 -57.74, -8.28 -91.46, -1.67 -100.33 C4.94 -109.21, 32.48 -103.94, 38.93 -102.5 C45.38 -101.06, 41.76 -93.33, 37.04 -91.67 C32.32 -90.01, 15.09 -94.49, 10.61 -92.54 C6.12 -90.59, 8.4 -82.22, 10.14 -79.98 C11.87 -77.74, 19.26 -80.56, 20.99 -79.11 C22.72 -77.67, 22.49 -72.4, 20.52 -71.32 C18.55 -70.23, 11.71 -76.8, 9.19 -72.61 C6.67 -68.43, 7.07 -50.09, 5.41 -46.19 C3.76 -42.3, 0.3 -48.72, -0.72 -49.23" stroke="#1e1e1e" stroke-width="1" fill="none"></path></g></g><mask></mask><g stroke-linecap="round" transform="translate(232.56015663056917 22.5) rotate(0 5.833333333333371 5.833333333333343)"><path d="M7.5 1.5 C8.43 2.55, 9.37 3.6, 10.17 4.5 C11.67 6, 11.67 6, 10.17 7.5 C9.5 8.17, 8.83 8.84, 7.5 10.17 C6 11.67, 6 11.67, 4.5 10.17 C3.58 9.35, 2.66 8.53, 1.5 7.5 C0 6, 0 6, 1.5 4.5 C2.33 3.67, 3.17 2.83, 4.5 1.5 C6 0, 6 0, 7.5 1.5" stroke="none" stroke-width="0" fill="#e03131"></path><path d="M7.5 1.5 C8.43 2.54, 9.35 3.59, 10.17 4.5 M7.5 1.5 C8.16 2.24, 8.82 2.99, 10.17 4.5 M10.17 4.5 C11.67 6, 11.67 6, 10.17 7.5 M10.17 4.5 C11.67 6, 11.67 6, 10.17 7.5 M10.17 7.5 C9.56 8.11, 8.95 8.72, 7.5 10.17 M10.17 7.5 C9.25 8.42, 8.33 9.34, 7.5 10.17 M7.5 10.17 C6 11.67, 6 11.67, 4.5 10.17 M7.5 10.17 C6 11.67, 6 11.67, 4.5 10.17 M4.5 10.17 C3.82 9.56, 3.13 8.95, 1.5 7.5 M4.5 10.17 C3.33 9.13, 2.17 8.09, 1.5 7.5 M1.5 7.5 C0 6, 0 6, 1.5 4.5 M1.5 7.5 C0 6, 0 6, 1.5 4.5 M1.5 4.5 C2.26 3.74, 3.02 2.98, 4.5 1.5 M1.5 4.5 C2.29 3.71, 3.09 2.91, 4.5 1.5 M4.5 1.5 C6 0, 6 0, 7.5 1.5 M4.5 1.5 C6 0, 6 0, 7.5 1.5" stroke="#e03131" stroke-width="1" fill="none"></path></g></svg>