<?xml version="1.0" encoding="UTF-8" standalone="no"?>
<!-- Created with Inkscape (http://www.inkscape.org/) -->

<svg
   width="400"
   height="400"
   viewBox="0 0 105.83333 105.83333"
   version="1.1"
   id="svg1"
   inkscape:version="1.3.2 (091e20ef0f, 2023-11-25)"
   sodipodi:docname="piaf_gray.svg"
   inkscape:export-filename="piaf_gray_square.png"
   inkscape:export-xdpi="100"
   inkscape:export-ydpi="100"
   xmlns:inkscape="http://www.inkscape.org/namespaces/inkscape"
   xmlns:sodipodi="http://sodipodi.sourceforge.net/DTD/sodipodi-0.dtd"
   xmlns="http://www.w3.org/2000/svg"
   xmlns:svg="http://www.w3.org/2000/svg">
  <sodipodi:namedview
     id="namedview1"
     pagecolor="#ffffff"
     bordercolor="#000000"
     borderopacity="0.25"
     inkscape:showpageshadow="2"
     inkscape:pageopacity="0.0"
     inkscape:pagecheckerboard="0"
     inkscape:deskcolor="#d1d1d1"
     inkscape:document-units="mm"
     inkscape:zoom="0.71713664"
     inkscape:cx="396.71658"
     inkscape:cy="53.685724"
     inkscape:window-width="1920"
     inkscape:window-height="1011"
     inkscape:window-x="0"
     inkscape:window-y="0"
     inkscape:window-maximized="1"
     inkscape:current-layer="layer1"
     showguides="false" />
  <defs
     id="defs1" />
  <g
     inkscape:label="Layer 1"
     inkscape:groupmode="layer"
     id="layer1">
    <g
       stroke-linecap="round"
       id="g3"
       style="fill:#b2b2b2;fill-opacity:1"
       transform="matrix(0.26458333,0,0,0.26458333,10.813388,1.5948502)">
      <g
         stroke-opacity="0.7"
         fill-opacity="0.7"
         transform="translate(153.39349,95.833333)"
         id="g2"
         style="fill:#b2b2b2;fill-opacity:1">
        <path
           d="m 0,0 c -23.06,43.89 -120.42,219.72 -138.33,263.33 -17.92,43.61 16.39,16.53 30.83,-1.66 14.44,-18.2 31.67,-87.36 55.83,-107.5 24.17,-20.14 67.78,-3.2 89.17,-13.34 C 58.89,130.69 71.53,111.67 76.67,93.33 81.81,75 76.94,46.53 68.33,30.83 59.72,15.14 36.39,4.31 25,-0.83 13.61,-5.97 4.17,-0.14 0,0 m 0,0 c -23.06,43.89 -120.42,219.72 -138.33,263.33 -17.92,43.61 16.39,16.53 30.83,-1.66 14.44,-18.2 31.67,-87.36 55.83,-107.5 24.17,-20.14 67.78,-3.2 89.17,-13.34 C 58.89,130.69 71.53,111.67 76.67,93.33 81.81,75 76.94,46.53 68.33,30.83 59.72,15.14 36.39,4.31 25,-0.83 13.61,-5.97 4.17,-0.14 0,0"
           stroke="#1e1e1e"
           stroke-width="1"
           fill="none"
           id="path1"
           style="fill:#b2b2b2;fill-opacity:1" />
      </g>
    </g>
    <g
       stroke-linecap="round"
       id="g5"
       style="fill:#b2b2b2;fill-opacity:1"
       transform="matrix(0.26458333,0,0,0.26458333,10.813388,1.5948502)">
      <g
         stroke-opacity="0.7"
         fill-opacity="0.7"
         transform="translate(177.56016,270)"
         id="g4"
         style="fill:#b2b2b2;fill-opacity:1">
        <path
           d="m 0,0 c 9.72,-10.14 47.5,-40.14 58.33,-60.83 10.84,-20.7 6.25,-46.53 6.67,-63.34 0.42,-16.8 -8.19,-31.11 -4.17,-37.5 4.03,-6.39 21.81,-12.77 28.34,-0.83 6.52,11.94 12.77,50.28 10.83,72.5 -1.94,22.22 -8.47,42.92 -22.5,60.83 C 63.47,-11.25 28.75,12.64 15.83,17.5 2.92,22.36 2.64,2.92 0,0 m 0,0 c 9.72,-10.14 47.5,-40.14 58.33,-60.83 10.84,-20.7 6.25,-46.53 6.67,-63.34 0.42,-16.8 -8.19,-31.11 -4.17,-37.5 4.03,-6.39 21.81,-12.77 28.34,-0.83 6.52,11.94 12.77,50.28 10.83,72.5 -1.94,22.22 -8.47,42.92 -22.5,60.83 C 63.47,-11.25 28.75,12.64 15.83,17.5 2.92,22.36 2.64,2.92 0,0"
           stroke="#1e1e1e"
           stroke-width="1"
           fill="none"
           id="path2"
           style="fill:#b2b2b2;fill-opacity:1" />
      </g>
    </g>
    <g
       stroke-opacity="0.7"
       fill-opacity="0.7"
       stroke-linecap="round"
       transform="matrix(0.26458333,0,0,0.26458333,60.43868,4.2406832)"
       id="g6"
       style="fill:#b2b2b2;fill-opacity:1">
      <path
         d="m 84.17,42.08 c 0,2 -0.15,4.02 -0.43,5.99 -0.29,1.98 -0.72,3.95 -1.28,5.87 -0.56,1.92 -1.27,3.81 -2.1,5.63 -0.83,1.81 -1.79,3.59 -2.87,5.27 -1.08,1.67 -2.29,3.29 -3.6,4.8 -1.31,1.51 -2.74,2.94 -4.25,4.25 -1.51,1.31 -3.13,2.52 -4.8,3.6 -1.68,1.08 -3.46,2.04 -5.27,2.87 -1.82,0.83 -3.71,1.54 -5.63,2.1 -1.92,0.56 -3.89,0.99 -5.87,1.28 -1.97,0.28 -3.99,0.43 -5.99,0.43 -1.99,0 -4.01,-0.15 -5.99,-0.43 -1.97,-0.29 -3.95,-0.72 -5.86,-1.28 -1.92,-0.56 -3.81,-1.27 -5.63,-2.1 -1.81,-0.83 -3.59,-1.79 -5.27,-2.87 -1.68,-1.08 -3.3,-2.29 -4.81,-3.6 -1.5,-1.31 -2.93,-2.74 -4.24,-4.25 C 8.97,68.13 7.76,66.51 6.68,64.84 5.6,63.16 4.63,61.38 3.8,59.57 2.97,57.75 2.27,55.86 1.7,53.94 1.14,52.02 0.71,50.05 0.43,48.07 0.14,46.1 0,44.08 0,42.08 0,40.09 0.14,38.07 0.43,36.09 0.71,34.12 1.14,32.14 1.7,30.23 2.27,28.31 2.97,26.42 3.8,24.6 c 0.83,-1.81 1.8,-3.59 2.88,-5.27 1.08,-1.68 2.29,-3.3 3.6,-4.81 1.31,-1.5 2.74,-2.93 4.24,-4.24 1.51,-1.31 3.13,-2.52 4.81,-3.6 C 21.01,5.6 22.79,4.63 24.6,3.8 26.42,2.97 28.31,2.27 30.23,1.7 32.14,1.14 34.12,0.71 36.09,0.43 38.07,0.14 40.09,0 42.08,0 c 2,0 4.02,0.14 5.99,0.43 1.98,0.28 3.95,0.71 5.87,1.27 1.92,0.57 3.81,1.27 5.63,2.1 1.81,0.83 3.59,1.8 5.27,2.88 1.67,1.08 3.29,2.29 4.8,3.6 1.51,1.31 2.94,2.74 4.25,4.24 1.31,1.51 2.52,3.13 3.6,4.81 1.08,1.68 2.04,3.46 2.87,5.27 0.83,1.82 1.54,3.71 2.1,5.63 0.56,1.91 0.99,3.89 1.28,5.86 0.28,1.98 0.36,5 0.43,5.99 0.07,1 0.07,-0.99 0,0"
         stroke="#1e1e1e"
         stroke-width="1"
         fill="none"
         id="path4"
         style="fill:#b2b2b2;fill-opacity:1" />
    </g>
    <g
       stroke-linecap="round"
       id="g8"
       style="fill:#b2b2b2;fill-opacity:1;stroke:#000000;stroke-opacity:1"
       transform="matrix(0.26458333,0,0,0.26458333,10.813388,1.5948502)">
      <g
         stroke-opacity="0.7"
         fill-opacity="0.7"
         transform="rotate(7.5573153,3.7191201,1976.0953)"
         id="g7"
         style="fill:#b2b2b2;fill-opacity:1;stroke:#000000;stroke-opacity:1">
        <path
           d="m 0,0 c 4.82,-1.48 25.69,-11.56 28.92,-8.89 3.22,2.68 -6.93,21.02 -9.56,24.94 -2.64,3.93 -5.72,0.28 -6.26,-1.41 C 12.57,12.96 16.16,8.22 16.15,5.95 16.14,3.69 15.12,1.38 13.03,1.05 10.93,0.71 5.74,4.12 3.57,3.94 1.4,3.77 0.6,0.66 0,0 m 0,0 c 4.82,-1.48 25.69,-11.56 28.92,-8.89 3.22,2.68 -6.93,21.02 -9.56,24.94 -2.64,3.93 -5.72,0.28 -6.26,-1.41 C 12.57,12.96 16.16,8.22 16.15,5.95 16.14,3.69 15.12,1.38 13.03,1.05 10.93,0.71 5.74,4.12 3.57,3.94 1.4,3.77 0.6,0.66 0,0"
           stroke="#1e1e1e"
           stroke-width="1"
           fill="none"
           id="path5"
           style="fill:#b2b2b2;fill-opacity:1;stroke:#000000;stroke-opacity:1" />
      </g>
    </g>
    <g
       stroke-linecap="round"
       id="g10"
       style="fill:#b2b2b2;fill-opacity:1"
       transform="matrix(0.26458333,0,0,0.26458333,10.813388,1.5948502)">
      <g
         stroke-opacity="0.7"
         fill-opacity="0.7"
         transform="rotate(11.46179,-1539.2271,1186.0045)"
         id="g9"
         style="fill:#b2b2b2;fill-opacity:1">
        <path
           d="m 0,0 c -0.16,-8.52 -7.55,-42.23 -0.94,-51.11 6.6,-8.88 34.14,-3.61 40.59,-2.16 6.46,1.44 2.84,9.16 -1.88,10.82 -4.72,1.66 -21.96,-2.81 -26.44,-0.86 -4.48,1.95 -2.2,10.32 -0.47,12.56 1.73,2.24 9.12,-0.58 10.86,0.86 1.73,1.45 1.49,6.72 -0.48,7.8 -1.96,1.08 -8.81,-5.49 -11.33,-1.3 C 7.4,-19.2 7.79,-0.87 6.14,3.03 4.48,6.93 1.02,0.51 0,0 m 0,0 c -0.16,-8.52 -7.55,-42.23 -0.94,-51.11 6.6,-8.88 34.14,-3.61 40.59,-2.16 6.46,1.44 2.84,9.16 -1.88,10.82 -4.72,1.66 -21.96,-2.81 -26.44,-0.86 -4.48,1.95 -2.2,10.32 -0.47,12.56 1.73,2.24 9.12,-0.58 10.86,0.86 1.73,1.45 1.49,6.72 -0.48,7.8 -1.96,1.08 -8.81,-5.49 -11.33,-1.3 C 7.4,-19.2 7.79,-0.87 6.14,3.03 4.48,6.93 1.02,0.51 0,0"
           stroke="#1e1e1e"
           stroke-width="1"
           fill="none"
           id="path7"
           style="fill:#b2b2b2;fill-opacity:1" />
      </g>
    </g>
    <g
       stroke-linecap="round"
       transform="matrix(0.26458333,0,0,0.26458333,72.34493,7.5479752)"
       id="g11">
      <path
         d="m 7.5,1.5 c 0.93,1.05 1.87,2.1 2.67,3 1.5,1.5 1.5,1.5 0,3 C 9.5,8.17 8.83,8.84 7.5,10.17 6,11.67 6,11.67 4.5,10.17 3.58,9.35 2.66,8.53 1.5,7.5 0,6 0,6 1.5,4.5 2.33,3.67 3.17,2.83 4.5,1.5 6,0 6,0 7.5,1.5"
         stroke="none"
         stroke-width="0"
         fill="#e03131"
         id="path9" />
      <path
         d="m 7.5,1.5 c 0.93,1.04 1.85,2.09 2.67,3 M 7.5,1.5 c 0.66,0.74 1.32,1.49 2.67,3 m 0,0 c 1.5,1.5 1.5,1.5 0,3 m 0,-3 c 1.5,1.5 1.5,1.5 0,3 m 0,0 C 9.56,8.11 8.95,8.72 7.5,10.17 M 10.17,7.5 C 9.25,8.42 8.33,9.34 7.5,10.17 m 0,0 c -1.5,1.5 -1.5,1.5 -3,0 m 3,0 c -1.5,1.5 -1.5,1.5 -3,0 m 0,0 C 3.82,9.56 3.13,8.95 1.5,7.5 m 3,2.67 C 3.33,9.13 2.17,8.09 1.5,7.5 m 0,0 C 0,6 0,6 1.5,4.5 m 0,3 C 0,6 0,6 1.5,4.5 m 0,0 c 0.76,-0.76 1.52,-1.52 3,-3 m -3,3 c 0.79,-0.79 1.59,-1.59 3,-3 m 0,0 C 6,0 6,0 7.5,1.5 m -3,0 C 6,0 6,0 7.5,1.5"
         stroke="#e03131"
         stroke-width="1"
         fill="none"
         id="path10" />
    </g>
  </g>
</svg>
