<?xml version="1.0" encoding="UTF-8" standalone="no"?>
<!-- Created with Inkscape (http://www.inkscape.org/) -->

<svg
   width="210mm"
   height="297mm"
   viewBox="0 0 210 297"
   version="1.1"
   id="svg1"
   inkscape:version="1.3.2 (091e20ef0f, 2023-11-25)"
   sodipodi:docname="asimov3.svg"
   inkscape:export-filename="asimov3.png"
   inkscape:export-xdpi="96"
   inkscape:export-ydpi="96"
   xmlns:inkscape="http://www.inkscape.org/namespaces/inkscape"
   xmlns:sodipodi="http://sodipodi.sourceforge.net/DTD/sodipodi-0.dtd"
   xmlns:xlink="http://www.w3.org/1999/xlink"
   xmlns="http://www.w3.org/2000/svg"
   xmlns:svg="http://www.w3.org/2000/svg">
  <sodipodi:namedview
     id="namedview1"
     pagecolor="#031978"
     bordercolor="#000000"
     borderopacity="0.25"
     inkscape:showpageshadow="2"
     inkscape:pageopacity="0.0"
     inkscape:pagecheckerboard="0"
     inkscape:deskcolor="#d1d1d1"
     inkscape:document-units="mm"
     inkscape:zoom="0.71713664"
     inkscape:cx="484.56595"
     inkscape:cy="577.99306"
     inkscape:window-width="1920"
     inkscape:window-height="1011"
     inkscape:window-x="0"
     inkscape:window-y="0"
     inkscape:window-maximized="1"
     inkscape:current-layer="layer1" />
  <defs
     id="defs1">
    <rect
       x="96.42296"
       y="140.79975"
       width="605.45143"
       height="908.18532"
       id="rect2" />
    <linearGradient
       id="linearGradient1"
       inkscape:collect="always">
      <stop
         style="stop-color:#000000;stop-opacity:1;"
         offset="0"
         id="stop1" />
      <stop
         style="stop-color:#000000;stop-opacity:0;"
         offset="1"
         id="stop2" />
    </linearGradient>
    <linearGradient
       id="linearGradient6"
       inkscape:collect="always">
      <stop
         style="stop-color:#e43c3c;stop-opacity:1;"
         offset="0.57021296"
         id="stop7" />
      <stop
         style="stop-color:#e43c3c;stop-opacity:0;"
         offset="1"
         id="stop8" />
    </linearGradient>
    <radialGradient
       inkscape:collect="always"
       xlink:href="#linearGradient6"
       id="radialGradient8"
       cx="71.660248"
       cy="7.7052164"
       fx="71.660248"
       fy="7.7052164"
       r="19.476863"
       gradientUnits="userSpaceOnUse"
       gradientTransform="matrix(0.65089537,0,0,0.65089537,-119.69117,120.10312)" />
    <linearGradient
       inkscape:collect="always"
       xlink:href="#linearGradient1"
       id="linearGradient2"
       x1="33.787926"
       y1="251.21775"
       x2="176.61134"
       y2="251.21775"
       gradientUnits="userSpaceOnUse" />
  </defs>
  <g
     inkscape:label="Layer 1"
     inkscape:groupmode="layer"
     id="layer1">
    <text
       xml:space="preserve"
       style="font-style:normal;font-variant:normal;font-weight:normal;font-stretch:normal;font-size:13.3293px;font-family:'Droid Sans';-inkscape-font-specification:'Droid Sans';text-align:center;text-anchor:middle;fill:#ffffff;fill-opacity:1;stroke:none;stroke-width:0.301089;stroke-linejoin:round;stroke-dasharray:none;stroke-opacity:1;paint-order:markers fill stroke"
       x="178.9857"
       y="251.4713"
       id="text18"><tspan
         sodipodi:role="line"
         id="tspan6"
         x="107.57399"
         y="251.4713"
         style="font-style:normal;font-variant:normal;font-weight:normal;font-stretch:normal;font-family:'Droid Sans';-inkscape-font-specification:'Droid Sans';fill:#ffffff;fill-opacity:1;stroke:none;stroke-width:0.301089;stroke-opacity:1"><tspan
           id="tspan18"
           style="font-style:normal;font-variant:normal;font-weight:normal;font-stretch:normal;font-family:'Droid Sans';-inkscape-font-specification:'Droid Sans';text-align:center;text-anchor:middle;fill:#ffffff;fill-opacity:1;stroke:none;stroke-width:0.301089;stroke-opacity:1"
           x="107.57399"
           y="251.4713">Conférences sur les</tspan></tspan><tspan
         sodipodi:role="line"
         id="tspan7"
         x="107.57399"
         y="268.1329"
         style="font-style:normal;font-variant:normal;font-weight:normal;font-stretch:normal;font-family:'Droid Sans';-inkscape-font-specification:'Droid Sans';fill:#ffffff;fill-opacity:1;stroke:none;stroke-width:0.301089;stroke-opacity:1">dangers du numérique</tspan><tspan
         sodipodi:role="line"
         x="107.57399"
         y="284.79453"
         id="tspan9"
         style="font-style:normal;font-variant:normal;font-weight:normal;font-stretch:normal;font-family:'Droid Sans';-inkscape-font-specification:'Droid Sans';fill:#ffffff;fill-opacity:1;stroke:none;stroke-width:0.301089;stroke-opacity:1" /></text>
    <text
       xml:space="preserve"
       style="font-size:25.7053px;letter-spacing:0px;word-spacing:0px;fill:#c9a800;fill-opacity:1;stroke:#4e4000;stroke-width:0.5;stroke-linejoin:round;stroke-dasharray:none;stroke-opacity:1;paint-order:markers fill stroke"
       x="51.725006"
       y="82.426407"
       id="text17"><tspan
         id="tspan17"
         style="letter-spacing:0px;word-spacing:0px;fill:#c9a800;fill-opacity:1;stroke:#4e4000;stroke-width:0.5;stroke-dasharray:none;stroke-opacity:1"
         x="51.725006"
         y="82.426407">ASIM   V</tspan></text>
    <circle
       style="fill:url(#radialGradient8);stroke:none;stroke-width:0.325447;stroke-linejoin:round;stroke-opacity:1;paint-order:markers fill stroke"
       id="path1"
       cx="-73.047859"
       cy="125.1184"
       r="12.514676"
       transform="rotate(-90)" />
    <path
       id="path4-2"
       style="fill:#000000;fill-opacity:1;stroke:#020000;stroke-width:0.310845;stroke-linejoin:round;paint-order:markers fill stroke"
       d="m 125.86029,74.472075 c 3.73134,0.873989 2.81331,3.041974 2.28872,8.71626 -0.37489,4.054976 -0.35516,6.387309 -5.17265,6.238424 -4.22023,-0.130427 -3.9631,-3.262743 -3.21998,-8.109426 0.91334,-5.956909 2.04134,-7.796833 6.10391,-6.845258 z m -2.5411,17.060142 c 4.28179,0.326693 4.58536,2.954695 4.24592,8.548483 -0.54221,8.93531 -0.4421,12.4983 -6.26656,12.49301 -4.6649,-0.004 -5.40846,-1.3787 -4.73292,-9.79983 0.64469,-8.036585 -0.24238,-11.775441 6.75356,-11.241663 z m -21.63918,19.131813 c 2.01199,-0.0366 4.91161,-0.0655 5.34313,1.38079 0.5748,1.92645 -2.07972,0.27511 -5.9778,0.92479 -4.327813,0.72131 -4.017183,1.05701 -4.138083,-0.64758 -0.15096,-2.12838 2.902676,-1.65381 4.772753,-1.658 z m 19.1946,4.02477 c 6.49463,0.19268 6.77189,3.07018 6.80178,10.2541 0.0392,9.42356 0.51031,17.815 -5.57187,17.96403 -6.62688,0.16237 -7.01398,-3.96724 -7.1437,-13.63136 -0.11895,-8.86173 0.45143,-14.61754 5.91379,-14.58677 z m -36.616959,0.67094 c 1.74841,-0.62341 5.4672,-1.00095 5.34005,0.42724 -0.14091,1.58278 -1.76426,1.39879 -5.64862,2.12599 -2.84049,0.53177 -3.29704,1.83991 -3.9288,-0.29528 -0.39029,-1.31907 1.81045,-1.39262 4.23737,-2.25795 z m 64.067259,9.24976 c 0.65754,0.023 1.28069,0.12832 1.75085,0.37527 4.16748,2.18892 5.68317,6.12636 5.96377,9.35781 0.66001,7.60083 -0.59698,12.35838 -9.20511,11.85316 -6.09674,-0.35784 -7.09743,2.29966 -7.09743,-8.39016 0,-6.257 2.84663,-12.37722 5.56431,-12.90215 0.73652,-0.14227 1.92771,-0.33229 3.02361,-0.29393 z m -44.18745,-10.2197 c 3.40557,-0.0977 5.09938,1.50397 5.50799,8.78487 0.50218,8.94833 1.83458,19.76599 -5.95629,20.62824 -6.213209,0.68765 -4.416499,-10.69989 -6.135149,-18.68851 -1.75941,-8.17808 -1.86703,-9.99881 3.593549,-10.61257 0.52734,-0.0593 2.50339,-0.0981 2.9899,-0.11203 z m -30.704529,7.54037 c 0.36029,1.66736 -0.28997,0.95227 -3.7434,2.48173 -2.92777,1.29666 -3.37521,1.58248 -3.94912,0.31 -0.3366,-0.74631 0.37895,-1.23583 3.40275,-2.55289 3.2934,-1.43448 4.09888,-1.12225 4.28977,-0.23884 z m 14.05287,-3.32155 c 2.67783,0.006 4.78522,1.87755 5.74907,7.0415 1.42947,7.65861 3.35534,19.55161 -3.77941,21.0188 -6.68246,1.37419 -5.01913,-8.55513 -7.52852,-16.37782 -1.83166,-5.70993 -2.38173,-9.10022 -0.46047,-10.03187 0.95495,-0.46308 5.12672,-1.65259 6.01933,-1.65061 z m -14.41276,5.93666 c 2.08084,0.0556 3.07734,2.26333 5.12147,6.77226 3.13406,6.91309 4.93992,17.54537 -0.74531,20.71223 -5.81027,3.23652 -6.06872,2.74648 -8.50123,-4.91416 -1.78508,-5.6217 -4.65218,-18.04127 -1.16379,-20.28243 0.81603,-0.52427 4.47463,-2.30968 5.28886,-2.2879 z m 44.199559,19.71727 c 5.24597,0.0663 11.33354,4.69573 12.66047,9.44736 1.57329,5.63385 7.70057,15.85126 11.16075,24.34613 3.85113,9.45465 1.70915,20.32046 -2.46842,23.8445 -8.21916,6.93338 -26.49044,5.93551 -37.25434,6.33595 -6.617239,0.24616 -16.168609,2.18901 -20.729219,-7.48667 -4.54749,-9.64783 -8.09289,-11.10442 -8.69017,-36.91181 -0.28121,-12.15013 22.61055,-17.89062 33.478659,-18.91474 3.33243,-0.31401 7.76207,-0.71233 11.84227,-0.66072 z m 26.96609,3.844 c 1.45133,0.003 3.09853,0.31302 5.71974,0.10373 6.93829,-0.55401 4.35317,5.54103 3.85459,11.69051 -0.53334,6.57827 -0.55134,12.70186 -6.60847,16.19454 -4.01172,2.31325 -8.22305,-6.15952 -11.3341,-12.34956 -2.17103,-4.3197 -0.24148,-7.65598 1.87074,-11.51088 1.12166,-2.04709 5.04617,-4.13106 6.4975,-4.12834 z m -5.67729,73.82216 c 0.0224,12.47713 0.0471,11.14434 -10.33742,11.19171 -6.50199,0.0297 -31.874469,-0.4293 -36.282866,-0.20676 -7.351442,0.37111 -7.772343,-0.28048 -8.141693,-11.81211 -0.0922,-2.87905 -1.23727,-10.44853 4.38975,-10.79482 7.73502,-0.23866 39.329549,-2.28968 43.146469,-2.3133 5.95466,-0.41914 7.20526,2.50922 7.22576,13.93528 z"
       inkscape:label="path4-2"
       sodipodi:nodetypes="ssssssssssssssscssscsssssscssssssssssssssssssssssssssssssssssssssssssssssssccs" />
    <g
       id="g10"
       style="stroke:#ffc817;stroke-width:0.4;stroke-dasharray:none;stroke-opacity:1"
       transform="matrix(-1,0,0,1,213.95983,25.298612)">
      <path
         style="fill:none;fill-opacity:1;stroke:#ffc817;stroke-width:0.4;stroke-linejoin:round;stroke-dasharray:none;stroke-opacity:1;paint-order:markers fill stroke"
         d="m 69.866422,138.77164 c 3.385889,-1.3579 3.867788,-2.08917 3.243049,-8.18136"
         id="path9"
         sodipodi:nodetypes="cc" />
      <circle
         style="fill:none;fill-opacity:1;stroke:#ffc817;stroke-width:0.4;stroke-linejoin:round;stroke-dasharray:none;stroke-opacity:1;paint-order:markers fill stroke"
         id="path10"
         cx="73.009644"
         cy="129.22707"
         r="1.1703277" />
      <path
         style="fill:none;fill-opacity:1;stroke:#ffc817;stroke-width:0.4;stroke-linejoin:round;stroke-dasharray:none;stroke-opacity:1;paint-order:markers fill stroke"
         d="m 81.013677,158.85213 c 3.919356,-0.61094 3.392617,-9.55498 2.629481,-12.46741"
         id="path9-3"
         sodipodi:nodetypes="cc" />
      <circle
         style="fill:none;fill-opacity:1;stroke:#ffc817;stroke-width:0.4;stroke-linejoin:round;stroke-dasharray:none;stroke-opacity:1;paint-order:markers fill stroke"
         id="path10-0"
         cx="83.409195"
         cy="145.24852"
         r="1.1703277" />
      <path
         style="fill:none;fill-opacity:1;stroke:#ffc817;stroke-width:0.4;stroke-linejoin:round;stroke-dasharray:none;stroke-opacity:1;paint-order:markers fill stroke"
         d="m 92.310144,106.10999 c 3.793988,0.29334 3.283035,-1.2237 3.484664,-3.97663"
         id="path9-3-7"
         sodipodi:nodetypes="cc" />
      <circle
         style="fill:none;fill-opacity:1;stroke:#ffc817;stroke-width:0.4;stroke-linejoin:round;stroke-dasharray:none;stroke-opacity:1;paint-order:markers fill stroke"
         id="path10-0-1"
         cx="95.698685"
         cy="100.65463"
         r="1.1703277" />
      <path
         style="fill:none;fill-opacity:1;stroke:#ffc817;stroke-width:0.4;stroke-linejoin:round;stroke-dasharray:none;stroke-opacity:1;paint-order:markers fill stroke"
         d="m 91.778218,109.61467 c -3.048781,0.42239 -3.09361,-6.2096 -3.135693,-8.72082"
         id="path9-3-7-7"
         sodipodi:nodetypes="cc" />
      <circle
         style="fill:none;fill-opacity:1;stroke:#ffc817;stroke-width:0.4;stroke-linejoin:round;stroke-dasharray:none;stroke-opacity:1;paint-order:markers fill stroke"
         id="path10-0-1-3"
         cx="-88.565163"
         cy="99.704414"
         r="1.1703277"
         transform="scale(-1,1)" />
      <path
         style="fill:none;fill-opacity:1;stroke:#ffc817;stroke-width:0.4;stroke-linejoin:round;stroke-dasharray:none;stroke-opacity:1;paint-order:markers fill stroke"
         d="m 91.661292,85.018973 c 0,0 -1.956604,0.576529 -2.570883,-3.7136 -0.05979,-0.417579 -0.360603,-2.715125 -0.395349,-3.243007"
         id="path9-3-7-7-1"
         sodipodi:nodetypes="csc" />
      <circle
         style="fill:none;fill-opacity:1;stroke:#ffc817;stroke-width:0.4;stroke-linejoin:round;stroke-dasharray:none;stroke-opacity:1;paint-order:markers fill stroke"
         id="path10-0-1-3-8"
         cx="-88.559883"
         cy="76.884735"
         r="1.1703277"
         transform="scale(-1,1)" />
      <path
         style="fill:none;fill-opacity:1;stroke:#ffc817;stroke-width:0.4;stroke-linejoin:round;stroke-dasharray:none;stroke-opacity:1;paint-order:markers fill stroke"
         d="m 109.10369,109.03439 c 2.16029,1.14692 3.33236,-4.44823 3.53088,-5.91813"
         id="path9-3-2"
         sodipodi:nodetypes="cc" />
      <circle
         style="fill:none;fill-opacity:1;stroke:#ffc817;stroke-width:0.4;stroke-linejoin:round;stroke-dasharray:none;stroke-opacity:1;paint-order:markers fill stroke"
         id="path10-0-2"
         cx="112.72421"
         cy="101.80922"
         r="1.1703277" />
      <path
         style="fill:none;fill-opacity:1;stroke:#ffc817;stroke-width:0.4;stroke-linejoin:round;stroke-dasharray:none;stroke-opacity:1;paint-order:markers fill stroke"
         d="m 126.20665,108.76879 c 2.45889,1.12928 3.48967,-4.81223 3.75694,-5.59384"
         id="path9-3-6"
         sodipodi:nodetypes="cc" />
      <circle
         style="fill:none;fill-opacity:1;stroke:#ffc817;stroke-width:0.4;stroke-linejoin:round;stroke-dasharray:none;stroke-opacity:1;paint-order:markers fill stroke"
         id="path10-0-15"
         cx="130.24718"
         cy="101.80967"
         r="1.1703277" />
      <path
         style="fill:none;fill-opacity:1;stroke:#ffc817;stroke-width:0.4;stroke-linejoin:round;stroke-dasharray:none;stroke-opacity:1;paint-order:markers fill stroke"
         d="m 138.82693,121.76803 c 3.14415,1.24826 2.87233,-0.79074 4.12524,-3.03324"
         id="path9-3-0"
         sodipodi:nodetypes="cc" />
      <circle
         style="fill:none;fill-opacity:1;stroke:#ffc817;stroke-width:0.4;stroke-linejoin:round;stroke-dasharray:none;stroke-opacity:1;paint-order:markers fill stroke"
         id="path10-0-9"
         cx="182.79762"
         cy="29.989521"
         r="1.1703277"
         transform="rotate(29.960072)" />
      <path
         style="fill:none;fill-opacity:1;stroke:#ffc817;stroke-width:0.4;stroke-linejoin:round;stroke-dasharray:none;stroke-opacity:1;paint-order:markers fill stroke"
         d="m 92.262388,136.95426 c 3.908864,0.80232 5.457557,-0.98922 6.583402,-7.24537"
         id="path9-8"
         sodipodi:nodetypes="cc" />
      <circle
         style="fill:none;fill-opacity:1;stroke:#ffc817;stroke-width:0.4;stroke-linejoin:round;stroke-dasharray:none;stroke-opacity:1;paint-order:markers fill stroke"
         id="path10-8"
         cx="99.224167"
         cy="128.63768"
         r="1.1703277" />
      <path
         style="fill:none;fill-opacity:1;stroke:#ffc817;stroke-width:0.4;stroke-linejoin:round;stroke-dasharray:none;stroke-opacity:1;paint-order:markers fill stroke"
         d="m 105.33727,158.17208 c 2.29968,0.17243 4.12454,-0.73906 4.2772,-4.80683"
         id="path9-4"
         sodipodi:nodetypes="cc" />
      <path
         style="fill:none;fill-opacity:1;stroke:#ffc817;stroke-width:0.4;stroke-linejoin:round;stroke-dasharray:none;stroke-opacity:1;paint-order:markers fill stroke"
         d="m 105.75799,150.30734 c -2.29969,0.17243 -5.33269,-1.50622 -5.48535,-5.574"
         id="path9-4-2"
         sodipodi:nodetypes="cc" />
      <circle
         style="fill:none;fill-opacity:1;stroke:#ffc817;stroke-width:0.4;stroke-linejoin:round;stroke-dasharray:none;stroke-opacity:1;paint-order:markers fill stroke"
         id="path10-9"
         cx="109.89691"
         cy="152.23415"
         r="1.1703277" />
      <circle
         style="fill:none;fill-opacity:1;stroke:#ffc817;stroke-width:0.4;stroke-linejoin:round;stroke-dasharray:none;stroke-opacity:1;paint-order:markers fill stroke"
         id="path10-9-5"
         cx="100.35886"
         cy="143.61139"
         r="1.1703277" />
      <path
         style="fill:none;fill-opacity:1;stroke:#ffc817;stroke-width:0.4;stroke-linejoin:round;stroke-dasharray:none;stroke-opacity:1;paint-order:markers fill stroke"
         d="m 113.9189,172.51607 c 3.76726,1.52966 6.47226,-7.35079 7.56951,-11.20301"
         id="path9-89"
         sodipodi:nodetypes="cc" />
      <circle
         style="fill:none;fill-opacity:1;stroke:#ffc817;stroke-width:0.4;stroke-linejoin:round;stroke-dasharray:none;stroke-opacity:1;paint-order:markers fill stroke"
         id="path10-2"
         cx="121.93172"
         cy="160.11397"
         r="1.1703277" />
      <path
         style="fill:none;fill-opacity:1;stroke:#ffc817;stroke-width:0.4;stroke-linejoin:round;stroke-dasharray:none;stroke-opacity:1;paint-order:markers fill stroke"
         d="m 128.89101,153.37475 c 5.54188,1.91286 7.72043,-1.52281 8.22338,-6.69893"
         id="path9-9"
         sodipodi:nodetypes="cc" />
      <path
         style="fill:none;fill-opacity:1;stroke:#ffc817;stroke-width:0.4;stroke-linejoin:round;stroke-dasharray:none;stroke-opacity:1;paint-order:markers fill stroke"
         d="m 125.89726,168.11645 c 6.17935,2.10457 6.64542,-0.76241 7.16269,-2.86657"
         id="path9-9-6"
         sodipodi:nodetypes="cc" />
      <circle
         style="fill:none;fill-opacity:1;stroke:#ffc817;stroke-width:0.4;stroke-linejoin:round;stroke-dasharray:none;stroke-opacity:1;paint-order:markers fill stroke"
         id="path10-5"
         cx="137.03763"
         cy="145.35109"
         r="1.1703277" />
      <circle
         style="fill:none;fill-opacity:1;stroke:#ffc817;stroke-width:0.4;stroke-linejoin:round;stroke-dasharray:none;stroke-opacity:1;paint-order:markers fill stroke"
         id="path10-5-3"
         cx="133.43852"
         cy="163.96581"
         r="1.1703277" />
      <path
         style="fill:none;fill-opacity:1;stroke:#ffc817;stroke-width:0.4;stroke-linejoin:round;stroke-dasharray:none;stroke-opacity:1;paint-order:markers fill stroke"
         d="m 91.875237,78.8589 c 1.50782,0.237968 2.379816,-2.907519 2.286536,-5.384338"
         id="path9-3-1"
         sodipodi:nodetypes="cc" />
      <circle
         style="fill:none;fill-opacity:1;stroke:#ffc817;stroke-width:0.4;stroke-linejoin:round;stroke-dasharray:none;stroke-opacity:1;paint-order:markers fill stroke"
         id="path10-0-159"
         cx="94.126953"
         cy="72.353027"
         r="1.1703277" />
      <path
         style="fill:none;fill-opacity:1;stroke:#ffc817;stroke-width:0.4;stroke-linejoin:round;stroke-dasharray:none;stroke-opacity:1;paint-order:markers fill stroke"
         d="m 109.13932,105.34209 c -3.7957,-1.13636 -1.69227,-4.44016 -1.71938,-6.186247"
         id="path9-3-7-3"
         sodipodi:nodetypes="cc" />
      <circle
         style="fill:none;fill-opacity:1;stroke:#ffc817;stroke-width:0.4;stroke-linejoin:round;stroke-dasharray:none;stroke-opacity:1;paint-order:markers fill stroke"
         id="path10-0-1-9"
         cx="-107.39133"
         cy="97.807617"
         r="1.1703277"
         transform="scale(-1,1)" />
      <path
         style="fill:none;fill-opacity:1;stroke:#ffc817;stroke-width:0.4;stroke-linejoin:round;stroke-dasharray:none;stroke-opacity:1;paint-order:markers fill stroke"
         d="m 124.28561,114.38145 c -3.23893,-0.99135 -2.19099,-4.61333 -2.13715,-5.83653"
         id="path9-3-7-3-9"
         sodipodi:nodetypes="cc" />
      <circle
         style="fill:none;fill-opacity:1;stroke:#ffc817;stroke-width:0.4;stroke-linejoin:round;stroke-dasharray:none;stroke-opacity:1;paint-order:markers fill stroke"
         id="path10-0-1-9-0"
         cx="-122.3712"
         cy="107.03316"
         r="1.1703277"
         transform="scale(-1,1)" />
      <path
         style="fill:none;fill-opacity:1;stroke:#ffc817;stroke-width:0.4;stroke-linejoin:round;stroke-dasharray:none;stroke-opacity:1;paint-order:markers fill stroke"
         d="m 139.82066,116.10851 c -1.70401,-1.1853 -2.51543,-3.6121 -1.66178,-5.79701"
         id="path9-3-7-3-0"
         sodipodi:nodetypes="cc" />
      <circle
         style="fill:none;fill-opacity:1;stroke:#ffc817;stroke-width:0.4;stroke-linejoin:round;stroke-dasharray:none;stroke-opacity:1;paint-order:markers fill stroke"
         id="path10-0-1-9-9"
         cx="-138.63651"
         cy="109.24047"
         r="1.1703277"
         transform="scale(-1,1)" />
      <path
         style="fill:none;fill-opacity:1;stroke:#ffc817;stroke-width:0.4;stroke-linejoin:round;stroke-dasharray:none;stroke-opacity:1;paint-order:markers fill stroke"
         d="m 117.86031,147.4247 c -5.13997,-0.53861 -3.08259,-9.0966 -3.29811,-10.48742"
         id="path9-3-7-3-5"
         sodipodi:nodetypes="cc" />
      <circle
         style="fill:none;fill-opacity:1;stroke:#ffc817;stroke-width:0.4;stroke-linejoin:round;stroke-dasharray:none;stroke-opacity:1;paint-order:markers fill stroke"
         id="path10-0-1-9-6"
         cx="-114.56895"
         cy="135.65231"
         r="1.1703277"
         transform="scale(-1,1)" />
      <path
         style="fill:none;fill-opacity:1;stroke:#ffc817;stroke-width:0.4;stroke-linejoin:round;stroke-dasharray:none;stroke-opacity:1;paint-order:markers fill stroke"
         d="m 112.71185,178.05685 c -3.48959,-0.91843 -3.71835,-6.3715 -3.34633,-10.8868"
         id="path9-3-7-3-98"
         sodipodi:nodetypes="cc" />
      <circle
         style="fill:none;fill-opacity:1;stroke:#ffc817;stroke-width:0.4;stroke-linejoin:round;stroke-dasharray:none;stroke-opacity:1;paint-order:markers fill stroke"
         id="path10-0-1-9-4"
         cx="-109.43428"
         cy="165.8241"
         r="1.1703277"
         transform="scale(-1,1)" />
      <path
         style="fill:none;fill-opacity:1;stroke:#ffc817;stroke-width:0.4;stroke-linejoin:round;stroke-dasharray:none;stroke-opacity:1;paint-order:markers fill stroke"
         d="m 103.59419,168.33111 c -5.310437,1.36811 -5.530297,-7.7001 -5.565044,-8.22799"
         id="path9-3-7-3-3"
         sodipodi:nodetypes="cc" />
      <circle
         style="fill:none;fill-opacity:1;stroke:#ffc817;stroke-width:0.4;stroke-linejoin:round;stroke-dasharray:none;stroke-opacity:1;paint-order:markers fill stroke"
         id="path10-0-1-9-04"
         cx="-97.838821"
         cy="158.82233"
         r="1.1703277"
         transform="scale(-1,1)" />
      <path
         style="fill:none;fill-opacity:1;stroke:#ffc817;stroke-width:0.4;stroke-linejoin:round;stroke-dasharray:none;stroke-opacity:1;paint-order:markers fill stroke"
         d="m 130.26963,146.10143 c -3.54659,0.15557 -2.02139,-6.04578 -2.16536,-8.40982"
         id="path9-3-7-3-7"
         sodipodi:nodetypes="cc" />
      <circle
         style="fill:none;fill-opacity:1;stroke:#ffc817;stroke-width:0.4;stroke-linejoin:round;stroke-dasharray:none;stroke-opacity:1;paint-order:markers fill stroke"
         id="path10-0-1-9-63"
         cx="-128.02783"
         cy="136.60625"
         r="1.1703277"
         transform="scale(-1,1)" />
      <path
         style="fill:none;fill-opacity:1;stroke:#ffc817;stroke-width:0.4;stroke-linejoin:round;stroke-dasharray:none;stroke-opacity:1;paint-order:markers fill stroke"
         d="m 93.024545,175.09403 c -3.086291,-0.70067 -3.752284,3.34911 -4.842742,-10.40547"
         id="path9-3-7-3-96"
         sodipodi:nodetypes="cc" />
      <circle
         style="fill:none;fill-opacity:1;stroke:#ffc817;stroke-width:0.4;stroke-linejoin:round;stroke-dasharray:none;stroke-opacity:1;paint-order:markers fill stroke"
         id="path10-0-1-9-2"
         cx="-88.17395"
         cy="163.49899"
         r="1.1703277"
         transform="scale(-1,1)" />
      <path
         style="fill:none;fill-opacity:1;stroke:#ffc817;stroke-width:0.4;stroke-linejoin:round;stroke-dasharray:none;stroke-opacity:1;paint-order:markers fill stroke"
         d="m 71.94867,143.68728 c -5.578752,2.97678 -7.157834,-5.29172 -8.047717,-8.37807"
         id="path9-3-7-3-57"
         sodipodi:nodetypes="cc" />
      <circle
         style="fill:none;fill-opacity:1;stroke:#ffc817;stroke-width:0.4;stroke-linejoin:round;stroke-dasharray:none;stroke-opacity:1;paint-order:markers fill stroke"
         id="path10-0-1-9-41"
         cx="-63.564148"
         cy="134.16946"
         r="1.1703277"
         transform="scale(-1,1)" />
    </g>
    <g
       id="g9"
       transform="matrix(-1,0,0,1,213.95983,25.298612)">
      <g
         id="g8"
         inkscape:label="g8"
         transform="matrix(0.58516381,0,0,0.58516381,47.820716,39.502324)"
         style="stroke:#e6cf73;stroke-width:1.19625;stroke-dasharray:none;stroke-dashoffset:0;stroke-opacity:1">
        <path
           style="fill:none;fill-opacity:1;stroke:#e6cf73;stroke-width:1.19625;stroke-linejoin:round;stroke-dasharray:none;stroke-dashoffset:0;stroke-opacity:1;paint-order:markers fill stroke"
           d="m 31.514541,121.44074 0.08025,16.5761 c 0,0 1.288993,17.63967 3.947643,25.98895 8.787978,27.59794 20.70956,22.63177 23.439119,51.44126 l 2.272989,23.99056 -0.586574,41.58446"
           id="path2-9"
           sodipodi:nodetypes="ccsscc" />
        <ellipse
           style="fill:none;fill-opacity:1;stroke:#e6cf73;stroke-width:1.19625;stroke-linejoin:round;stroke-dasharray:none;stroke-dashoffset:0;stroke-opacity:1;paint-order:markers fill stroke"
           id="path8"
           cx="31.704865"
           cy="117.82986"
           rx="3.5959101"
           ry="3.6095524" />
        <path
           style="fill:none;fill-opacity:1;stroke:#e6cf73;stroke-width:1.19625;stroke-linejoin:round;stroke-dasharray:none;stroke-dashoffset:0;stroke-opacity:1;paint-order:markers fill stroke"
           d="m 147.22509,98.125619 c 0,0 -6.12018,29.601311 -9.11438,40.156121 -4.90629,17.29512 -13.75152,38.13108 -17.11569,53.5627 -3.61807,16.59626 -4.79009,24.88912 -7.20427,41.70275 -0.72197,5.02816 -7.82417,23.29292 -7.91105,47.04663"
           id="path2-9-0-5"
           sodipodi:nodetypes="csssc"
           transform="translate(17.278443,1.6233514)" />
        <path
           style="fill:none;fill-opacity:1;stroke:#e6cf73;stroke-width:1.19625;stroke-linejoin:round;stroke-dasharray:none;stroke-dashoffset:0;stroke-opacity:1;paint-order:markers fill stroke"
           d="m 54.757751,25.703552 c 0,0 2.58859,38.507441 2.746955,49.121968 0.703046,47.12231 0.77707,133.23564 1.476847,140.62153 l 2.272989,23.99056 -0.57366,40.51886"
           id="path2-9-0"
           sodipodi:nodetypes="csscc"
           transform="translate(17.278443,1.6233514)" />
        <path
           style="fill:none;fill-opacity:1;stroke:#e6cf73;stroke-width:1.19625;stroke-linejoin:round;stroke-dasharray:none;stroke-dashoffset:0;stroke-opacity:1;paint-order:markers fill stroke"
           d="m 91.638678,78.83129 c 0,0 -3.832752,27.27575 -4.45987,37.76038 -3.037526,50.78372 0.462974,21.44905 -4.731303,66.95838 l -6.434668,56.37693 0.409669,39.50713"
           id="path2-9-0-7"
           sodipodi:nodetypes="csscc"
           transform="translate(17.278443,1.6233514)" />
        <path
           style="fill:none;fill-opacity:1;stroke:#e6cf73;stroke-width:1.19625;stroke-linejoin:round;stroke-dasharray:none;stroke-dashoffset:0;stroke-opacity:1;paint-order:markers fill stroke"
           d="m 121.48437,86.382801 c 0,0 -4.0683,27.218619 -6.72316,37.380929 -13.22828,50.63548 -13.67888,74.31886 -16.964238,91.4645 -5.76715,20.1877 -5.75925,44.27982 -6.087592,64.91999"
           id="path2-9-0-3"
           sodipodi:nodetypes="cssc"
           transform="translate(17.278443,1.6233514)" />
        <ellipse
           style="fill:none;fill-opacity:1;stroke:#e6cf73;stroke-width:1.19625;stroke-linejoin:round;stroke-dasharray:none;stroke-dashoffset:0;stroke-opacity:1;paint-order:markers fill stroke"
           id="path8-3"
           cx="71.908974"
           cy="24.169884"
           rx="3.5959101"
           ry="3.6095524" />
      </g>
      <path
         style="fill:none;stroke:#e6cf73;stroke-width:0.70002;stroke-linejoin:round;stroke-dasharray:none;stroke-opacity:1;paint-order:markers fill stroke"
         id="path2"
         sodipodi:type="arc"
         sodipodi:cx="-93.642906"
         sodipodi:cy="-201.40195"
         sodipodi:rx="2.4139867"
         sodipodi:ry="2.9194834"
         sodipodi:start="0"
         sodipodi:end="3.1480084"
         sodipodi:arc-type="arc"
         d="m -91.22892,-201.40195 a 2.4139867,2.9194834 0 0 1 -1.211466,2.53147 2.4139867,2.9194834 0 0 1 -2.418444,-0.009 2.4139867,2.9194834 0 0 1 -1.198013,-2.54081"
         transform="matrix(-0.99794228,-0.06411871,0.05336784,-0.99857492,0,0)"
         sodipodi:open="true" />
      <path
         style="fill:none;stroke:#e6cf73;stroke-width:0.70002;stroke-linejoin:round;stroke-dasharray:none;stroke-opacity:1;paint-order:markers fill stroke"
         id="path2-7"
         sodipodi:type="arc"
         sodipodi:cx="-78.828026"
         sodipodi:cy="-212.46869"
         sodipodi:rx="2.4139867"
         sodipodi:ry="2.9194834"
         sodipodi:start="0"
         sodipodi:end="3.1480084"
         sodipodi:arc-type="arc"
         d="m -76.414039,-212.46869 a 2.4139867,2.9194834 0 0 1 -1.211467,2.53146 2.4139867,2.9194834 0 0 1 -2.418444,-0.009 2.4139867,2.9194834 0 0 1 -1.198013,-2.54081"
         transform="matrix(-0.99829759,0.05832607,-0.06907367,-0.99761156,0,0)"
         sodipodi:open="true" />
      <path
         style="fill:none;stroke:#e6cf73;stroke-width:0.70002;stroke-linejoin:round;stroke-dasharray:none;stroke-opacity:1;paint-order:markers fill stroke"
         id="path2-7-6"
         sodipodi:type="arc"
         sodipodi:cx="-113.87767"
         sodipodi:cy="-199.93082"
         sodipodi:rx="2.4139867"
         sodipodi:ry="2.9194834"
         sodipodi:start="0"
         sodipodi:end="3.1480084"
         sodipodi:arc-type="arc"
         d="m -111.46368,-199.93082 a 2.4139867,2.9194834 0 0 1 -1.21147,2.53147 2.4139867,2.9194834 0 0 1 -2.41844,-0.009 2.4139867,2.9194834 0 0 1 -1.19802,-2.54081"
         transform="matrix(-0.99777986,-0.06659843,0.05584917,-0.99843922,0,0)"
         sodipodi:open="true" />
      <path
         style="fill:none;stroke:#e6cf73;stroke-width:0.70002;stroke-linejoin:round;stroke-dasharray:none;stroke-opacity:1;paint-order:markers fill stroke"
         id="path2-7-6-6"
         sodipodi:type="arc"
         sodipodi:cx="-118.60879"
         sodipodi:cy="-202.25023"
         sodipodi:rx="2.4139867"
         sodipodi:ry="2.9194834"
         sodipodi:start="0"
         sodipodi:end="3.1480084"
         sodipodi:arc-type="arc"
         d="m -116.1948,-202.25023 a 2.4139867,2.9194834 0 0 1 -1.21147,2.53146 2.4139867,2.9194834 0 0 1 -2.41844,-0.009 2.4139867,2.9194834 0 0 1 -1.19801,-2.54081"
         transform="matrix(-0.99896537,-0.04547743,0.03471663,-0.9993972,0,0)"
         sodipodi:open="true" />
      <path
         style="fill:none;stroke:#e6cf73;stroke-width:0.70002;stroke-linejoin:round;stroke-dasharray:none;stroke-opacity:1;paint-order:markers fill stroke"
         id="path2-7-6-6-9"
         sodipodi:type="arc"
         sodipodi:cx="-118.50166"
         sodipodi:cy="-207.13713"
         sodipodi:rx="2.4139867"
         sodipodi:ry="2.9194834"
         sodipodi:start="0"
         sodipodi:end="3.1480084"
         sodipodi:arc-type="arc"
         d="m -116.08768,-207.13713 a 2.4139867,2.9194834 0 0 1 -1.21146,2.53146 2.4139867,2.9194834 0 0 1 -2.41845,-0.009 2.4139867,2.9194834 0 0 1 -1.19801,-2.54081"
         transform="matrix(-0.99998682,-0.00513381,-0.00563565,-0.99998412,0,0)"
         sodipodi:open="true" />
    </g>
    <rect
       style="fill:none;fill-opacity:1;stroke:#c29f00;stroke-width:1.08538;stroke-linejoin:round;stroke-dasharray:none;stroke-opacity:1;paint-order:markers fill stroke"
       id="rect9"
       width="133.74617"
       height="178.09294"
       x="39.160187"
       y="55.593327"
       ry="0.023365621" />
    <text
       xml:space="preserve"
       transform="scale(0.26458333)"
       id="text2"
       style="font-style:normal;font-variant:normal;font-weight:normal;font-stretch:normal;font-size:85.3333px;font-family:'Droid Sans';-inkscape-font-specification:'Droid Sans';text-align:center;letter-spacing:0px;word-spacing:0px;white-space:pre;shape-inside:url(#rect2);display:inline;fill:#ffffff;fill-opacity:1;stroke:none;stroke-width:1.88976;stroke-linejoin:round;stroke-opacity:1;paint-order:markers fill stroke" />
  </g>
</svg>
